<?xml version="1.0" encoding="UTF-8"?>
<svg xmlns="http://www.w3.org/2000/svg" xmlns:xlink="http://www.w3.org/1999/xlink" width="512pt" height="512pt" viewBox="0 0 512 512" version="1.1">
<defs>
<linearGradient id="linear0" gradientUnits="userSpaceOnUse" x1="32" y1="6" x2="32" y2="58" spreadMethod="reflect" >
<stop offset="0" style="stop-color:#1A6DFF;stop-opacity:1;"/>
<stop offset="1" style="stop-color:#C822FF;stop-opacity:1;"/>
</linearGradient>
<linearGradient id="linear1" gradientUnits="userSpaceOnUse" x1="30.9996" y1="16" x2="30.9996" y2="49.98" spreadMethod="reflect" gradientTransform="matrix(8,0,0,8,0,0)">
<stop offset="0" style="stop-color:#6DC7FF;stop-opacity:1;"/>
<stop offset="1" style="stop-color:#E6ABFF;stop-opacity:1;"/>
</linearGradient>
<linearGradient id="linear2" gradientUnits="userSpaceOnUse" x1="21" y1="16.5" x2="21" y2="49.7859" spreadMethod="reflect" gradientTransform="matrix(8,0,0,8,0,0)">
<stop offset="0" style="stop-color:#6DC7FF;stop-opacity:1;"/>
<stop offset="1" style="stop-color:#E6ABFF;stop-opacity:1;"/>
</linearGradient>
</defs>
<g id="surface1">
<path style="fill:none;stroke-width:2;stroke-linecap:butt;stroke-linejoin:miter;stroke:url(#linear0);stroke-miterlimit:4;" d="M 57 32 C 57 45.807129 45.807129 57 32 57 C 18.192871 57 7 45.807129 7 32 C 7 18.192871 18.192871 7 32 7 C 45.807129 7 57 18.192871 57 32 Z " transform="matrix(8,0,0,8,0,0)"/>
<path style=" stroke:none;fill-rule:nonzero;fill:url(#linear1);" d="M 383.441406 134.640625 C 383.121094 130.800781 379.921875 128 376.078125 128 L 366.078125 128 C 323.601563 128 273.921875 152.398438 233.039063 193.199219 L 232 194.160156 C 227.839844 198.320313 223.839844 202.320313 219.839844 206.640625 C 217.28125 209.359375 213.679688 211.039063 210.078125 211.199219 C 178 212.800781 153.503906 220.160156 130.703125 242.800781 L 114.144531 259.519531 C 112.0625 261.601563 111.425781 264.71875 112.542969 267.441406 C 113.664063 270.160156 116.304688 272 119.34375 272 L 183.902344 272 L 181.679688 282.160156 C 179.039063 290.078125 181.039063 298.71875 187.039063 304.71875 L 207.441406 325.039063 C 213.28125 330.878906 222.160156 332.960938 230 330.398438 L 240 328 L 240 392.480469 C 240 395.519531 241.761719 398.078125 244.558594 399.28125 C 245.441406 399.679688 246.320313 399.839844 247.359375 399.839844 C 249.28125 399.839844 251.199219 399.121094 252.558594 397.679688 L 269.121094 381.039063 C 291.761719 358.480469 299.199219 334.320313 300.960938 302.558594 C 301.121094 298.800781 302.960938 295.28125 305.839844 292.558594 C 310.078125 288.71875 314.238281 284.480469 318.960938 279.039063 C 363.28125 234.800781 388.078125 179.441406 383.441406 134.640625 Z M 304 232 C 290.71875 232 280 221.28125 280 208 C 280 194.71875 290.71875 184 304 184 C 317.28125 184 328 194.71875 328 208 C 328 221.28125 317.28125 232 304 232 Z "/>
<path style=" stroke:none;fill-rule:nonzero;fill:url(#linear2);" d="M 198.710938 349.03125 C 196.425781 352.320313 193.777344 355.519531 191.214844 358.078125 C 179.601563 369.601563 164.425781 376 148.519531 376 C 146.511719 376 144.59375 375.910156 142.671875 375.726563 C 139.105469 375.359375 136.273438 372.441406 136.089844 368.777344 C 135.175781 351.039063 141.9375 333.574219 154.648438 321.046875 C 157.296875 318.304688 160.777344 315.558594 164.335938 313.28125 C 165.519531 312.457031 167.078125 312 168.542969 312 C 174.574219 312 176.496094 317.847656 177.414063 320.59375 C 179.609375 327.542969 184.910156 333.207031 191.496094 335.679688 C 194.96875 337.046875 198.449219 338.609375 199.632813 342.449219 C 200.359375 344.550781 199.992188 347.199219 198.710938 349.03125 Z "/>
</g>
</svg>
